<?xml version="1.0" standalone="no"?>
<!DOCTYPE svg PUBLIC "-//W3C//DTD SVG 20010904//EN"
 "http://www.w3.org/TR/2001/REC-SVG-20010904/DTD/svg10.dtd">
<svg version="1.0" xmlns="http://www.w3.org/2000/svg"
 width="1080.000000pt" height="1080.000000pt" viewBox="0 0 1080.000000 575.000000"
 preserveAspectRatio="xMidYMid meet">

<g transform="translate(0.000000,1080.000000) scale(0.100000,-0.100000)"
fill="#000000" stroke="none">
<path d="M7280 9020 c0 -12 18 -38 39 -58 22 -21 43 -51 46 -67 4 -17 22 -46
40 -65 18 -19 36 -49 39 -66 4 -17 22 -46 41 -64 19 -18 37 -46 40 -62 4 -16
24 -48 46 -70 21 -23 39 -47 39 -55 0 -8 12 -13 30 -13 17 0 30 4 30 9 0 5 12
23 26 40 32 39 26 78 -20 124 -18 18 -59 79 -91 137 -32 59 -80 128 -108 158
-44 44 -57 52 -89 52 -20 0 -40 5 -43 10 -3 6 -19 10 -36 10 -23 0 -29 -4 -29
-20z"/>
<path d="M7126 8931 c-21 -21 -55 -44 -78 -50 -22 -7 -59 -30 -83 -52 -23 -21
-49 -39 -57 -39 -20 0 -87 -46 -110 -76 -10 -13 -34 -26 -52 -30 -20 -3 -48
-20 -67 -41 -19 -19 -59 -46 -89 -60 -30 -13 -68 -37 -85 -52 -16 -16 -46 -34
-66 -40 -20 -6 -49 -25 -65 -42 -16 -17 -53 -42 -82 -55 -30 -13 -66 -36 -80
-52 -15 -16 -45 -35 -66 -42 -22 -7 -58 -29 -80 -50 -23 -20 -57 -42 -77 -49
-19 -6 -53 -29 -74 -51 -26 -26 -48 -40 -65 -40 -52 0 -71 -61 -26 -81 16 -8
32 -31 47 -70 25 -63 49 -76 69 -39 6 12 21 20 36 20 25 0 26 -2 19 -37 -4
-21 -9 -51 -12 -68 -7 -49 13 -8 31 60 12 48 24 69 60 103 25 23 52 42 62 42
20 0 21 1 -46 -258 -28 -112 -50 -208 -48 -214 2 -6 28 76 57 183 29 107 59
217 67 246 8 28 30 71 49 95 19 24 35 50 35 58 0 22 60 213 65 208 3 -2 -7
-53 -20 -113 -22 -98 -23 -110 -9 -118 19 -11 15 -42 -21 -162 -29 -95 -85
-318 -85 -336 0 -29 11 6 64 201 69 254 61 231 87 221 15 -5 28 -24 39 -57
l17 -49 -77 -270 c-58 -205 -80 -269 -91 -268 -11 2 -26 -37 -58 -152 -39
-136 -43 -161 -34 -198 8 -37 4 -61 -29 -177 -50 -177 -45 -164 -63 -147 -8 9
-20 17 -26 19 -6 2 -13 30 -15 63 -4 47 3 87 29 185 31 112 36 125 55 122 17
-3 23 5 31 40 6 24 24 93 41 153 32 115 35 141 21 164 -11 16 -35 5 -74 -37
-38 -39 -74 -194 -59 -253 8 -32 3 -59 -29 -175 -22 -76 -40 -139 -42 -140 -2
-2 -13 -1 -26 3 -52 13 -54 97 -6 259 19 65 35 120 35 121 0 2 8 3 19 3 14 0
22 14 35 58 9 32 16 61 16 65 0 15 -41 6 -65 -16 -22 -19 -27 -32 -30 -82 -2
-54 -56 -270 -71 -284 -9 -9 -53 47 -60 76 -9 34 32 207 52 224 24 20 44 65
44 99 0 37 -12 63 -51 107 -19 23 -30 49 -35 83 -5 35 -11 50 -19 46 -17 -6
-64 44 -74 81 -15 52 41 114 115 128 42 7 45 35 9 63 -14 11 -33 41 -41 66
-24 70 -33 73 -108 37 -36 -17 -81 -46 -100 -66 -19 -19 -40 -35 -46 -35 -15
0 -13 -6 25 -74 20 -36 46 -68 60 -74 15 -7 25 -20 25 -32 0 -29 16 -57 56
-98 18 -19 39 -53 47 -76 8 -24 23 -46 37 -53 20 -10 35 -39 56 -104 8 -23
-51 -78 -112 -105 -58 -26 -104 -74 -104 -110 0 -14 16 -42 38 -67 21 -23 46
-61 56 -84 10 -23 30 -52 43 -65 14 -13 34 -42 44 -66 10 -23 34 -59 54 -79
19 -20 40 -54 47 -75 16 -53 27 -60 78 -49 30 7 40 6 37 -2 -7 -19 -84 -303
-112 -417 -22 -89 -32 -111 -63 -142 -20 -21 -46 -38 -57 -38 -12 0 -47 -20
-79 -45 -56 -43 -93 -62 -102 -52 -3 3 4 32 16 66 21 63 27 122 11 105 -5 -5
-19 -49 -31 -99 -17 -76 -27 -96 -57 -127 -26 -26 -46 -38 -65 -38 -33 0 -34
1 -8 76 26 74 100 343 100 361 0 8 -4 12 -9 8 -12 -7 -26 -55 -87 -290 -44
-171 -47 -179 -86 -216 -24 -23 -51 -39 -65 -39 -27 0 -28 4 -7 61 23 64 95
351 90 356 -6 6 -68 -193 -101 -327 -19 -77 -34 -113 -53 -133 -29 -31 -81
-62 -89 -53 -3 2 19 92 47 198 60 220 66 248 53 248 -9 0 -74 -221 -118 -400
-20 -78 -71 -140 -117 -140 -15 0 -28 2 -28 5 0 3 25 88 55 188 61 202 72 247
58 247 -8 0 -44 -121 -121 -405 -20 -74 -71 -135 -113 -135 -16 0 -29 2 -29 5
0 3 25 88 55 188 61 203 72 247 58 247 -10 0 -74 -209 -114 -373 -20 -80 -25
-91 -67 -127 -41 -37 -82 -52 -82 -31 0 5 13 51 29 102 55 179 92 320 88 332
-9 29 -39 -54 -86 -248 -43 -173 -57 -215 -79 -238 -29 -31 -78 -60 -92 -55
-4 2 19 98 51 213 32 116 58 217 56 225 -7 39 -39 -51 -87 -248 -47 -191 -56
-215 -77 -225 -13 -6 -30 -21 -37 -34 -10 -20 -12 -8 -11 79 1 85 7 122 35
216 18 62 30 115 27 118 -14 14 -26 -13 -57 -131 -21 -81 -38 -125 -46 -125
-23 0 -46 48 -53 108 l-6 57 -42 -42 c-24 -24 -50 -43 -58 -43 -25 0 -67 -25
-99 -59 -17 -17 -37 -31 -46 -31 -22 0 -88 -45 -112 -75 -10 -13 -32 -27 -50
-30 -17 -4 -52 -26 -77 -50 -25 -23 -59 -45 -74 -49 -16 -4 -47 -24 -70 -45
-23 -20 -63 -45 -89 -55 -27 -10 -62 -34 -82 -57 -24 -25 -45 -39 -61 -39 -13
0 -39 -13 -57 -29 -30 -27 -33 -35 -33 -88 -1 -62 -68 -334 -91 -367 -16 -23
-64 -56 -81 -56 -21 0 -15 49 26 211 21 85 41 170 45 189 6 33 6 34 -8 14 -8
-12 -33 -92 -55 -178 -21 -87 -41 -160 -44 -162 -13 -13 -49 25 -58 61 -9 32
-8 55 5 110 9 39 16 74 16 80 0 20 -18 -12 -35 -62 -18 -57 -28 -64 -47 -33
-21 33 -59 25 -107 -24 -24 -24 -56 -47 -73 -50 -16 -3 -49 -23 -73 -44 -24
-21 -62 -44 -84 -52 -22 -7 -55 -28 -73 -47 -18 -18 -57 -45 -86 -58 -30 -14
-66 -37 -80 -53 -15 -15 -53 -40 -85 -56 -32 -15 -65 -39 -74 -52 -8 -13 -24
-24 -35 -24 -27 0 -68 -23 -97 -54 -14 -14 -49 -37 -78 -50 -29 -14 -65 -37
-80 -52 -16 -16 -54 -41 -86 -57 -32 -16 -65 -39 -73 -52 -8 -13 -34 -28 -58
-35 -24 -6 -59 -26 -77 -43 -19 -17 -56 -42 -82 -54 -27 -13 -61 -36 -76 -51
-14 -16 -43 -34 -64 -41 -50 -17 -94 -55 -102 -90 -8 -38 9 -77 55 -128 22
-23 40 -51 40 -62 0 -34 -46 -78 -89 -85 -26 -4 -44 -14 -55 -30 -8 -14 -45
-39 -81 -56 -73 -35 -80 -52 -39 -90 14 -14 33 -43 43 -66 10 -22 30 -52 43
-65 14 -13 30 -43 37 -67 7 -24 27 -60 45 -80 18 -20 39 -54 45 -74 16 -48 22
-52 111 -72 41 -10 89 -22 106 -27 17 -5 46 -9 66 -9 20 0 55 -9 79 -20 24
-11 56 -20 71 -20 15 0 30 -4 33 -10 9 -15 56 -12 89 5 38 20 43 19 50 -11 5
-19 12 -25 29 -22 25 3 33 36 22 103 -5 37 -9 42 -29 38 -14 -3 -26 -15 -32
-35 -17 -57 -29 -25 -26 72 3 78 15 140 69 345 35 138 72 279 81 315 16 60 21
68 67 98 28 19 57 31 67 29 13 -4 23 4 33 24 9 16 24 29 34 29 11 0 21 6 24
13 2 6 7 -22 11 -63 7 -71 4 -86 -52 -295 -33 -121 -81 -301 -107 -400 -25
-99 -51 -196 -56 -216 -6 -24 -16 -39 -30 -42 -33 -9 -22 -51 15 -55 36 -4 48
13 40 60 -4 28 19 126 97 415 56 208 106 395 112 416 8 32 13 37 31 31 33 -10
37 -17 43 -76 4 -44 -2 -80 -36 -198 -22 -80 -61 -221 -85 -314 -28 -103 -55
-184 -71 -207 -46 -70 -22 -109 29 -48 20 23 26 42 26 77 0 25 9 80 21 121 61
222 142 506 144 509 2 2 12 -1 23 -7 13 -7 23 -30 31 -69 12 -56 11 -63 -23
-173 -19 -62 -44 -152 -56 -198 -12 -46 -32 -100 -46 -120 -45 -66 -20 -100
30 -40 21 24 26 41 25 73 -2 35 81 370 95 383 3 3 13 2 24 -1 12 -4 25 -25 35
-56 15 -46 15 -54 -4 -122 -11 -40 -31 -96 -45 -125 -26 -51 -29 -83 -8 -90
18 -6 54 72 54 116 0 57 20 132 37 138 16 6 52 -23 63 -52 4 -11 1 -34 -7 -53
-8 -19 -13 -40 -11 -48 3 -12 6 -12 25 1 14 10 24 31 28 58 10 68 19 76 49 47
49 -45 25 -98 -59 -136 -29 -12 -68 -36 -87 -52 -18 -16 -53 -38 -78 -49 -25
-11 -57 -33 -71 -50 -15 -18 -39 -33 -60 -37 -22 -4 -50 -21 -74 -46 -21 -21
-50 -42 -64 -45 -15 -3 -40 -17 -56 -30 -29 -24 -29 -25 -11 -40 11 -8 30 -15
42 -15 13 0 40 -11 60 -25 49 -34 107 -33 157 0 20 14 37 30 37 35 0 6 24 21
53 34 29 13 69 37 88 53 18 17 53 40 76 52 23 11 57 34 75 50 18 15 50 34 70
40 21 7 56 30 79 52 25 24 50 39 66 39 13 0 23 3 21 8 -2 4 -21 41 -41 83 -20
42 -43 79 -51 82 -18 7 -56 78 -56 105 0 25 35 55 91 80 26 11 64 35 85 54 22
20 56 41 77 48 21 6 53 27 71 45 18 18 53 42 78 53 25 11 61 36 81 56 20 20
44 36 53 36 17 0 63 29 104 65 14 13 41 28 61 34 20 7 52 27 71 45 19 18 54
42 79 53 24 11 63 38 87 61 l43 41 -23 57 c-14 34 -33 62 -50 72 -24 15 -30
14 -67 -2 -22 -10 -52 -32 -68 -48 -15 -17 -50 -40 -78 -52 -27 -13 -64 -35
-82 -50 -17 -14 -47 -33 -67 -41 -20 -9 -53 -31 -74 -49 -20 -19 -55 -41 -77
-50 -22 -10 -53 -30 -70 -45 -16 -16 -55 -41 -85 -55 -30 -15 -68 -40 -85 -55
-16 -15 -41 -32 -55 -38 -14 -6 -46 -26 -71 -46 -26 -19 -66 -44 -90 -55 -24
-11 -57 -33 -73 -51 -17 -17 -35 -31 -41 -31 -6 0 -28 -9 -49 -20 -22 -10 -42
-17 -47 -15 -4 3 -5 22 -2 44 3 21 1 41 -5 45 -7 4 -3 31 10 79 34 123 52 132
23 12 -18 -77 -18 -75 5 -75 32 0 90 58 90 90 0 31 -43 90 -66 90 -8 0 -14 9
-14 21 0 11 -5 41 -11 66 -9 34 -18 47 -38 54 -20 7 -32 25 -50 71 l-24 62 39
33 c22 18 52 39 68 47 26 12 32 12 63 -6 18 -11 35 -19 37 -17 1 2 9 24 16 49
8 25 15 38 17 28 2 -9 -2 -32 -10 -51 -12 -29 -13 -42 -2 -83 11 -43 10 -59
-6 -124 -27 -103 -19 -123 10 -27 18 63 26 77 40 72 14 -4 24 23 65 170 27 96
53 175 57 175 15 0 11 -22 -37 -196 -42 -152 -46 -174 -37 -218 8 -39 7 -60
-8 -108 -20 -63 -26 -116 -10 -88 5 8 14 41 21 72 12 51 16 58 37 58 16 0 27
-8 33 -25 13 -34 30 -31 73 9 20 19 58 42 84 52 27 9 66 35 89 56 22 21 57 43
77 49 47 13 71 48 73 108 1 25 24 132 52 236 28 105 56 217 63 250 11 48 22
70 56 106 31 33 51 46 68 45 14 0 25 -6 25 -12 0 -7 -38 -145 -85 -309 -81
-282 -98 -353 -75 -314 12 20 107 352 151 524 31 122 35 132 72 165 80 70 101
62 70 -28 -12 -37 -23 -77 -23 -89 0 -12 -16 -42 -35 -68 -35 -45 -35 -47 -22
-86 9 -26 25 -47 45 -59 18 -11 32 -26 32 -34 0 -7 6 -19 14 -25 12 -10 12
-18 0 -58 -8 -25 -14 -51 -14 -57 1 -19 30 27 30 46 0 10 7 21 15 24 11 5 12
11 5 25 -8 14 -4 25 21 54 34 38 109 83 109 65 0 -6 -14 -38 -31 -72 -24 -47
-29 -66 -21 -82 6 -14 5 -32 -4 -56 -15 -41 -18 -80 -6 -80 5 0 16 32 25 71
10 43 28 84 43 102 22 27 25 36 19 79 -7 48 -6 50 35 90 35 32 48 39 72 36 20
-3 32 0 38 12 20 36 83 90 106 90 13 0 24 -3 24 -6 0 -4 -14 -31 -31 -60 -23
-42 -29 -60 -24 -87 5 -23 -5 -71 -30 -161 -20 -70 -34 -130 -31 -133 3 -4 8
-4 10 -2 5 6 70 234 101 359 28 111 37 130 64 130 12 0 21 22 37 88 12 48 29
103 38 122 l16 35 -6 -45 c-4 -25 -17 -79 -30 -120 -28 -87 -29 -118 -10 -164
12 -28 52 -58 59 -44 2 1 12 41 24 88 11 47 28 101 36 120 l16 35 -6 -35 c-2
-19 -16 -76 -30 -127 -23 -85 -24 -96 -12 -144 7 -28 20 -54 29 -57 8 -3 25
-14 36 -24 37 -33 114 5 114 57 0 22 -43 85 -59 85 -3 0 -14 -24 -23 -52 l-17
-53 6 45 c8 65 8 101 -1 131 -6 20 -2 33 18 56 36 43 33 69 -13 114 -26 24
-45 54 -54 85 -11 37 -21 52 -45 64 -24 11 -32 24 -37 53 -8 46 -50 99 -63 79
-5 -7 -26 -73 -47 -148 -21 -74 -40 -133 -42 -130 -7 7 25 169 47 239 11 34
20 72 20 84 0 23 47 63 74 63 9 0 33 15 53 34 35 31 74 56 87 56 3 0 6 -21 6
-47 0 -55 15 -43 26 20 7 46 62 112 100 121 15 4 28 5 30 3 2 -2 -14 -69 -36
-150 -40 -146 -49 -200 -30 -181 5 5 28 84 51 174 39 156 44 167 82 208 38 39
87 57 87 32 0 -6 -16 -63 -34 -128 -38 -129 -106 -394 -106 -413 0 -44 27 39
90 281 39 151 78 287 86 301 19 38 78 73 109 65 18 -5 25 -2 25 8 0 34 112
111 132 91 3 -3 -10 -56 -28 -118 -42 -140 -117 -438 -111 -443 5 -5 52 158
118 405 26 101 55 193 62 205 19 28 80 61 100 53 13 -5 11 -19 -15 -104 -40
-135 -119 -455 -115 -467 4 -12 69 218 123 436 35 144 38 149 80 188 41 37 84
53 84 30 0 -6 -16 -65 -35 -133 -19 -67 -61 -228 -94 -357 -60 -231 -61 -234
-103 -277 -30 -31 -50 -43 -71 -43 -19 0 -36 -10 -53 -30 -14 -16 -54 -43 -89
-61 -35 -17 -74 -42 -87 -56 -12 -14 -43 -34 -68 -45 -25 -10 -61 -34 -80 -52
-19 -19 -51 -39 -70 -45 -58 -19 -100 -64 -100 -107 0 -36 33 -104 51 -104 5
0 23 -28 40 -62 l31 -61 -39 -34 c-21 -18 -64 -47 -95 -63 -31 -16 -72 -43
-90 -59 -18 -15 -53 -37 -78 -48 -25 -11 -54 -30 -65 -43 -11 -12 -43 -32 -71
-45 -27 -12 -66 -35 -85 -51 -18 -16 -55 -39 -80 -52 -26 -13 -59 -37 -75 -53
l-28 -29 60 6 60 6 28 -42 c27 -42 28 -42 74 -35 58 9 77 18 122 60 19 18 51
38 71 44 20 6 54 27 75 45 21 18 58 43 81 55 23 11 57 34 75 50 18 15 54 38
80 49 26 11 60 33 75 49 16 15 51 37 78 48 65 26 71 53 22 104 -19 20 -42 53
-51 75 -9 21 -29 54 -46 72 -16 19 -30 41 -30 49 0 8 19 23 43 33 23 10 63 35
89 55 26 20 69 47 95 61 26 13 57 34 68 46 11 13 39 31 62 41 24 10 58 34 77
53 19 19 52 40 73 46 21 7 47 20 58 30 11 10 39 29 63 44 42 26 56 56 27 56
-20 0 -35 40 -35 91 0 22 31 153 69 292 38 138 86 319 107 401 29 117 44 157
66 182 28 32 84 62 95 50 3 -3 -22 -110 -57 -238 -71 -265 -210 -798 -210
-806 0 -3 5 -1 10 4 6 6 35 100 64 210 115 429 170 614 180 611 19 -6 56 -69
56 -96 0 -14 -14 -73 -30 -131 -17 -58 -60 -219 -96 -359 -36 -140 -73 -265
-81 -278 -22 -33 -10 -53 30 -53 22 0 41 -8 53 -21 28 -31 68 -49 109 -49 27
0 45 9 78 39 23 21 58 44 78 50 20 7 52 27 71 45 19 18 55 42 80 53 24 11 60
36 80 55 19 19 45 38 59 41 13 4 47 24 74 45 28 20 76 50 108 66 32 15 65 38
73 51 9 13 29 27 45 30 16 4 51 25 77 48 26 22 70 50 98 63 74 33 86 79 33
130 -17 16 -37 41 -45 57 -19 36 -35 34 -79 -8 -20 -19 -53 -39 -73 -46 -21
-6 -53 -26 -72 -45 -19 -18 -52 -40 -72 -49 -21 -8 -60 -35 -88 -60 -28 -25
-59 -45 -68 -45 -10 0 -41 -18 -71 -40 -53 -40 -91 -51 -91 -28 0 7 -7 1 -17
-12 -34 -52 -79 -91 -116 -101 -21 -6 -58 -28 -82 -50 -40 -37 -85 -52 -85
-28 0 6 25 101 55 211 31 110 54 205 52 211 -5 15 -73 -212 -101 -334 -13 -59
-29 -116 -35 -127 -23 -42 -121 -92 -121 -61 0 8 42 167 93 354 66 240 97 339
106 337 26 -6 107 32 146 68 22 21 60 47 86 57 25 11 61 34 80 50 18 17 50 35
70 42 20 6 49 25 65 42 16 17 49 40 74 51 56 24 110 75 109 102 0 12 -6 36
-13 55 -11 31 -8 48 31 180 115 388 316 1147 337 1271 16 95 -23 -39 -128
-435 -197 -742 -259 -965 -271 -965 -7 0 -20 9 -30 20 -10 11 -24 20 -32 20
-7 0 -13 5 -13 11 0 6 47 182 104 392 110 401 221 820 331 1247 55 213 70 259
93 283 27 28 72 57 90 57 5 0 -13 -89 -40 -197 -43 -174 -53 -202 -80 -230
l-31 -32 15 -48 c12 -39 21 -50 45 -56 27 -8 31 -15 43 -73 7 -34 16 -62 19
-60 3 2 15 0 26 -4 18 -6 23 9 72 204 29 116 53 213 53 215 0 2 -6 1 -14 -2
-7 -3 -18 -1 -23 4 -6 6 -27 -13 -55 -50 -40 -50 -50 -58 -72 -54 -29 6 -31
17 -15 60 6 15 28 94 49 176 34 130 43 152 77 191 33 38 42 58 62 147 12 56
40 166 62 245 30 110 38 152 33 187 -6 39 -3 50 20 79 15 20 26 48 26 66 0 35
-45 96 -66 88 -10 -4 -14 3 -14 24 0 44 -36 40 -84 -9z m59 -132 c-13 -50 -14
-67 -4 -85 14 -27 0 -69 -36 -113 -12 -14 -28 -51 -34 -81 -22 -98 -95 -353
-98 -344 -2 6 17 92 42 192 34 137 43 192 39 225 -6 39 -3 48 25 79 17 20 31
40 31 44 0 17 43 154 47 150 2 -2 -3 -32 -12 -67z m-131 -26 c-4 -21 -15 -62
-25 -90 -18 -52 -17 -53 2 -67 20 -14 20 -14 -1 -57 -12 -24 -30 -53 -40 -64
-9 -11 -31 -78 -49 -150 -36 -146 -94 -331 -84 -270 3 22 27 118 53 212 27
100 43 178 38 185 -17 28 -8 74 21 102 16 15 32 42 35 59 9 46 48 177 53 177
2 0 1 -17 -3 -37z m-166 -162 c-17 -71 -20 -94 -10 -100 16 -10 -2 -66 -31
-98 -13 -15 -39 -99 -77 -247 -72 -280 -77 -306 -56 -306 9 0 16 -3 16 -6 0
-3 -56 -211 -124 -462 -69 -251 -161 -596 -206 -767 -45 -170 -83 -311 -85
-313 -9 -9 -46 27 -60 59 -16 35 -16 40 13 145 40 146 76 304 70 309 -4 5 -91
-292 -119 -406 -12 -50 -65 -111 -106 -124 -30 -8 -30 -7 11 144 46 169 98
392 93 397 -4 5 -77 -247 -127 -441 -28 -108 -35 -124 -70 -157 -24 -24 -49
-38 -65 -38 -14 0 -25 3 -25 6 0 4 22 81 50 173 50 166 98 345 140 519 20 84
24 92 46 92 18 0 25 7 30 28 13 58 54 199 67 231 13 30 13 41 0 86 l-15 52 72
254 c39 140 73 260 76 267 2 8 12 11 23 7 16 -5 22 8 50 119 22 90 29 137 25
169 -6 39 -3 48 23 78 17 19 33 48 37 64 15 64 49 175 53 171 3 -2 -6 -46 -18
-97 -16 -65 -20 -94 -12 -96 16 -6 -9 -88 -35 -117 -11 -11 -27 -55 -37 -96
-10 -41 -28 -104 -40 -140 -20 -60 -21 -69 -8 -115 16 -57 54 -95 96 -95 15 0
27 -4 27 -9 0 -5 -22 -85 -49 -178 -26 -92 -63 -228 -81 -300 -27 -111 -35
-133 -51 -133 -15 0 -25 -20 -48 -97 -17 -54 -33 -111 -37 -127 -7 -28 -6 -29
22 -22 16 4 46 25 68 47 l39 41 -6 76 c-5 69 -2 90 38 232 24 85 62 229 85
320 38 152 44 168 79 205 34 36 41 52 66 160 15 66 43 176 62 245 19 69 35
130 34 135 0 6 -3 28 -6 50 -4 33 0 44 24 70 16 16 31 44 35 60 13 57 49 175
53 172 2 -2 -7 -46 -19 -96z m-149 -96 c-19 -79 -20 -98 -9 -105 15 -9 2 -49
-35 -104 -11 -17 -36 -89 -54 -159 -40 -152 -79 -278 -80 -257 -1 19 62 270
82 325 10 28 11 48 5 65 -11 30 3 87 30 116 10 11 22 33 26 49 15 65 49 175
53 171 2 -2 -6 -47 -18 -101z m-301 -194 c-19 -78 -20 -93 -8 -101 12 -7 10
-16 -9 -57 -12 -26 -31 -59 -41 -73 -17 -21 -21 -23 -30 -10 -17 27 -11 65 18
100 16 19 32 49 36 65 14 61 49 175 53 172 2 -2 -7 -46 -19 -96z m-294 -160
c-9 -40 -18 -70 -21 -67 -3 3 2 37 12 76 10 39 19 69 22 67 2 -3 -4 -37 -13
-76z m-148 -91 c-28 -80 -27 -56 2 50 9 36 18 56 20 45 2 -12 -9 -54 -22 -95z
m884 -123 c0 -8 -38 -152 -85 -320 -102 -369 -226 -828 -341 -1262 -88 -332
-95 -349 -156 -381 -39 -20 -51 -18 -45 9 25 110 52 192 69 209 16 16 19 28
14 62 -5 32 3 75 34 186 102 359 202 729 309 1149 74 288 80 301 146 342 35
22 55 24 55 6z m-1184 -72 c-9 -31 -15 -41 -15 -26 -1 29 23 112 26 91 2 -8
-3 -37 -11 -65z m1288 -290 c-15 -61 -24 -80 -24 -53 0 21 31 121 36 116 2 -3
-3 -31 -12 -63z m-1164 -333 c0 -27 -31 -112 -40 -112 -15 0 -40 43 -40 69 0
32 27 61 57 61 16 0 23 -6 23 -18z m457 -1099 c-56 -195 -59 -203 -95 -239
-25 -25 -47 -37 -66 -38 -22 -1 -42 -14 -74 -48 -29 -31 -53 -48 -68 -48 -13
0 -24 2 -24 5 0 2 12 51 26 107 22 87 31 109 62 141 25 25 45 37 64 37 15 0
28 -1 28 -2 0 -2 -9 -32 -20 -66 -22 -71 -27 -120 -9 -90 5 10 19 55 30 100
25 98 71 158 122 158 23 0 28 -4 24 -17z m-300 -190 c-3 -10 -17 -61 -32 -113
-28 -97 -49 -131 -97 -156 -58 -30 -59 -22 -18 112 26 86 35 104 71 137 44 40
85 50 76 20z m-307 -197 c0 -5 -169 -646 -196 -743 -10 -35 -19 -51 -27 -47
-7 2 -30 -2 -50 -11 -20 -8 -39 -15 -43 -15 -9 0 -4 20 54 220 28 96 72 254
97 350 42 159 50 178 83 213 21 21 46 37 59 37 13 0 23 -2 23 -4z m-1410 -477
c-23 -84 -46 -171 -51 -193 -17 -65 -21 -32 -4 40 29 129 90 339 93 323 1 -8
-16 -85 -38 -170z m121 -14 c-32 -129 -58 -178 -35 -68 18 82 57 208 62 195 1
-5 -10 -63 -27 -127z m-265 -62 c-35 -129 -64 -217 -65 -198 -1 14 44 194 71
285 37 124 32 50 -6 -87z m-156 -120 c-23 -87 -46 -175 -51 -197 -15 -56 -23
-36 -10 26 20 94 94 353 98 341 3 -7 -14 -83 -37 -170z m-144 -70 c-19 -71
-42 -146 -51 -168 l-15 -40 5 35 c9 62 89 336 93 318 2 -10 -12 -75 -32 -145z
m-171 -168 c-31 -109 -61 -203 -68 -207 -17 -11 -47 -10 -47 1 0 5 4 21 9 35
7 18 15 23 30 19 21 -5 21 -5 51 120 27 108 75 260 77 247 2 -8 -21 -105 -52
-215z m-115 29 c-17 -51 -23 -35 -8 22 7 27 14 41 16 31 2 -9 -2 -33 -8 -53z
m726 -70 c-4 -20 -10 -34 -13 -30 -3 3 -2 21 1 42 4 20 10 34 13 30 3 -3 2
-21 -1 -42z m-760 12 c16 -12 19 -27 19 -94 0 -73 -3 -84 -30 -124 -29 -41
-75 -73 -94 -66 -13 5 64 298 79 298 3 0 15 -6 26 -14z m664 -39 c0 -2 -9 -45
-21 -97 -17 -79 -26 -101 -57 -136 -22 -25 -46 -43 -59 -43 -28 -1 -28 -6 -1
107 25 106 69 172 114 172 13 0 24 -1 24 -3z m70 -59 c11 -18 20 -40 20 -50 0
-23 -57 -68 -86 -68 -28 0 -28 -3 -9 50 8 23 15 55 15 71 0 41 34 39 60 -3z
m-210 -34 c0 -3 -14 -52 -31 -107 -34 -110 -73 -167 -116 -167 -13 0 -23 1
-23 3 0 2 9 45 20 97 19 90 23 97 66 138 39 36 84 55 84 36z m-950 -136 c-33
-132 -84 -292 -88 -280 -2 6 20 95 49 198 53 184 80 242 39 82z m-160 -135
c-23 -87 -46 -175 -51 -197 -15 -56 -23 -36 -10 26 20 94 94 353 98 341 3 -7
-14 -83 -37 -170z m254 20 c-9 -32 -19 -52 -22 -44 -2 7 4 41 14 75 10 33 20
53 22 44 2 -10 -4 -44 -14 -75z m-394 -84 c-33 -133 -70 -253 -76 -247 -5 5
21 114 63 262 20 71 38 125 40 119 2 -6 -10 -66 -27 -134z m-149 -87 c-37
-141 -69 -242 -70 -222 -1 18 40 185 71 289 34 115 33 65 -1 -67z m949 126 c0
-7 -16 -61 -34 -119 -19 -59 -47 -161 -62 -227 -19 -82 -33 -122 -43 -124 -8
-2 -19 -23 -25 -48 -7 -29 -17 -46 -28 -48 -24 -5 -34 40 -19 88 6 20 11 61
11 90 0 80 84 325 126 368 32 32 74 43 74 20z m-160 -102 c0 -33 -54 -213 -70
-233 -10 -13 -21 -39 -24 -58 -4 -19 -15 -39 -25 -45 -11 -5 -22 -26 -25 -47
-11 -56 -49 -194 -53 -189 -2 2 10 66 26 144 16 77 35 189 42 248 12 117 22
137 84 175 36 23 45 24 45 5z m-910 -5 c0 -16 -99 -383 -104 -389 -12 -12 -4
29 40 210 26 103 51 188 55 188 5 0 9 -4 9 -9z m751 -107 c-11 -15 -21 -34
-21 -44 0 -10 -9 -29 -21 -44 -11 -14 -36 -83 -54 -153 -19 -71 -43 -153 -55
-183 -19 -51 -20 -52 -14 -15 3 22 26 109 50 194 24 84 44 170 44 190 1 42 27
78 61 83 33 5 34 3 10 -28z m-930 -106 c-39 -145 -73 -245 -66 -198 8 56 88
335 92 323 3 -7 -9 -63 -26 -125z m-155 -115 c-19 -71 -42 -146 -51 -168 l-15
-40 5 35 c9 62 89 336 93 318 2 -10 -12 -75 -32 -145z m-146 -84 c-33 -133
-70 -253 -76 -247 -5 5 21 114 63 262 20 71 38 125 40 119 2 -6 -10 -66 -27
-134z m-194 -251 c-25 -95 -58 -218 -75 -273 -30 -101 -31 -115 -5 -115 18 0
18 -5 -1 -66 -19 -63 -67 -286 -62 -290 5 -6 63 186 88 291 17 75 27 96 57
128 25 25 45 37 64 37 15 0 28 -4 28 -8 0 -5 -11 -42 -25 -83 -49 -141 -120
-438 -96 -399 12 21 73 229 111 380 24 95 38 132 58 153 28 30 81 62 88 54 6
-5 -31 -152 -82 -334 -19 -68 -34 -131 -34 -140 0 -15 2 -15 14 -3 8 8 42 123
76 255 51 197 67 245 88 268 29 30 78 60 91 55 4 -2 -26 -129 -68 -283 -61
-224 -83 -291 -110 -332 -27 -42 -37 -51 -47 -42 -19 16 -68 -5 -117 -49 -35
-32 -40 -34 -94 -30 -43 4 -61 10 -77 29 -12 13 -33 30 -48 38 -15 7 -32 27
-39 43 -10 25 -16 28 -47 26 -35 -3 -37 -1 -63 52 -15 30 -28 60 -28 65 0 6
21 28 49 50 27 22 50 49 51 60 1 17 2 17 6 3 2 -10 13 -18 24 -18 10 0 19 -1
19 -2 0 -2 -7 -21 -15 -43 -8 -22 -14 -56 -14 -75 l0 -35 15 40 c8 22 19 60
25 85 6 27 23 59 43 80 25 26 38 53 50 105 28 119 139 505 143 501 3 -2 -16
-82 -41 -178z m790 155 c-19 -76 -48 -164 -53 -159 -9 8 39 186 50 186 5 0 6
-12 3 -27z m-901 -99 c-33 -143 -129 -497 -133 -486 -3 11 91 401 124 510 22
74 28 59 9 -24z m-139 -59 c-9 -31 -15 -41 -15 -26 -1 29 23 112 26 91 2 -8
-3 -37 -11 -65z m1099 -71 c-26 -101 -42 -136 -32 -73 8 52 47 182 53 176 3
-3 -6 -49 -21 -103z m-1200 -316 c-27 -95 -51 -151 -39 -93 15 76 59 218 62
203 2 -10 -9 -60 -23 -110z m1340 -26 c13 -8 39 -92 31 -99 -20 -20 -56 33
-56 83 0 25 7 29 25 16z"/>
<path d="M6422 7628 c-17 -57 -46 -161 -63 -231 -30 -120 -33 -128 -54 -123
-20 5 -23 -1 -40 -72 -9 -42 -30 -111 -44 -153 -24 -67 -26 -80 -15 -110 7
-19 13 -46 13 -61 1 -32 -1 -31 38 -18 27 10 31 17 42 75 6 36 24 100 39 143
26 74 27 80 13 124 -14 45 -13 51 27 190 45 161 85 328 79 334 -2 2 -18 -42
-35 -98z"/>
<path d="M8069 8764 c-13 -14 -51 -38 -84 -54 -33 -15 -71 -39 -84 -53 -13
-14 -37 -29 -54 -33 -33 -7 -117 -85 -117 -109 0 -9 9 -15 21 -15 24 0 24 1
-12 -127 -13 -46 -26 -83 -29 -83 -16 0 -73 44 -77 61 -3 10 -14 19 -24 19
-22 0 -25 -29 -9 -76 10 -28 7 -33 -46 -88 -48 -49 -61 -57 -85 -54 -24 4 -33
-1 -55 -36 -27 -41 -27 -63 0 -127 5 -12 -3 -23 -29 -39 -19 -12 -47 -37 -61
-55 -23 -30 -28 -33 -49 -23 -22 10 -29 6 -72 -42 -46 -51 -48 -57 -79 -194
-17 -78 -41 -176 -52 -218 -16 -56 -20 -93 -16 -140 5 -59 -9 -114 -204 -828
-189 -697 -210 -765 -228 -763 -16 2 -22 -8 -33 -55 -15 -63 -51 -165 -57
-160 -5 5 23 124 42 178 12 34 14 56 7 90 -11 57 3 119 130 590 106 391 257
976 256 987 -2 23 -39 -104 -105 -359 -101 -395 -306 -1126 -316 -1133 -2 -1
-31 -10 -66 -20 -49 -14 -71 -27 -97 -58 -45 -53 -55 -118 -26 -175 11 -22 29
-47 38 -54 10 -7 31 -39 47 -71 30 -61 36 -65 56 -42 7 8 32 24 56 34 24 11
65 35 91 53 26 18 52 36 57 40 7 5 5 12 -5 20 -9 7 -23 33 -31 58 -15 45 -14
47 64 335 43 160 137 511 208 780 72 270 133 496 135 504 4 11 8 11 20 1 9 -7
18 -10 21 -8 3 3 25 82 49 174 43 169 113 405 121 413 9 9 1 -27 -72 -319 -64
-256 -74 -309 -66 -340 8 -31 -4 -82 -80 -360 -48 -179 -138 -511 -198 -739
-61 -228 -115 -421 -122 -428 -12 -15 -15 -89 -4 -101 12 -12 26 22 25 63 -1
22 38 180 85 350 76 272 169 619 277 1033 29 114 34 123 53 118 19 -5 24 3 44
82 32 119 64 224 67 220 7 -7 -26 -156 -51 -236 -25 -77 -26 -86 -13 -130 7
-26 13 -49 12 -52 -1 -3 -49 -179 -107 -392 -170 -618 -315 -1171 -310 -1180
3 -4 12 -8 20 -8 10 0 14 13 14 47 0 35 144 617 176 712 11 32 74 -55 74 -102
0 -18 7 -27 26 -31 15 -4 27 -6 29 -4 1 2 18 61 38 131 40 139 60 189 50 122
-5 -35 -28 -121 -66 -247 -9 -30 -8 -43 8 -77 17 -38 51 -79 58 -70 2 2 34
119 71 259 100 380 200 727 204 707 4 -19 -115 -472 -203 -772 -30 -104 -55
-200 -55 -213 0 -28 21 -71 46 -94 18 -16 24 1 158 480 148 528 160 567 150
487 -5 -45 -98 -393 -220 -827 -24 -87 -44 -172 -44 -188 0 -38 34 -106 59
-120 11 -5 27 -33 36 -61 13 -39 24 -54 44 -62 21 -8 30 -22 44 -69 13 -42 24
-62 41 -69 16 -8 31 -31 45 -67 12 -31 31 -62 42 -70 11 -7 29 -33 40 -57 l20
-43 -21 -63 c-12 -35 -35 -78 -51 -96 -33 -39 -35 -49 -14 -100 14 -33 23 -40
72 -56 l56 -18 36 29 c20 16 56 38 82 49 25 11 61 34 80 50 18 17 56 40 82 51
27 12 61 34 75 50 15 16 44 34 65 41 21 7 53 28 71 46 18 18 53 42 78 52 24
11 60 34 79 50 18 17 56 40 82 51 27 12 61 34 75 50 15 16 44 34 65 41 21 7
53 28 71 46 18 18 53 42 78 53 25 11 61 36 81 56 20 20 43 36 52 36 24 0 67
25 95 55 14 15 49 38 78 51 30 13 66 36 80 52 15 15 53 40 85 56 32 15 65 39
74 52 8 13 24 24 35 24 44 0 108 51 108 87 0 12 -15 40 -34 60 -18 21 -40 54
-49 74 -8 19 -29 52 -48 73 -18 21 -62 90 -98 154 -38 67 -76 121 -89 128 -32
16 -33 18 -21 51 7 23 21 35 53 47 24 9 61 31 82 50 21 18 56 39 77 45 21 7
53 28 72 47 18 18 51 40 72 49 49 21 113 83 113 111 0 20 -48 95 -69 108 -6 4
-19 27 -31 52 -11 25 -32 58 -48 72 -15 15 -36 48 -46 74 -10 26 -29 56 -42
67 -13 11 -30 34 -36 52 -11 31 -9 34 22 60 18 15 44 30 58 34 14 3 42 20 61
37 19 17 58 41 85 53 28 13 68 41 90 63 46 48 44 67 -9 134 -19 24 -41 58 -50
77 -8 19 -31 53 -50 76 -18 23 -37 55 -41 70 -4 15 -23 44 -43 64 -20 20 -44
57 -54 82 -10 25 -28 56 -42 69 -13 12 -36 47 -51 77 -14 30 -33 57 -41 60 -8
3 -25 29 -37 57 -13 28 -33 60 -45 70 -12 11 -31 40 -42 65 -25 57 -66 101
-93 101 -12 0 -39 -10 -61 -23 -58 -33 -60 -71 -6 -129 22 -24 43 -56 46 -70
4 -15 21 -44 39 -65 17 -21 39 -55 48 -75 10 -20 33 -54 51 -75 19 -21 37 -50
41 -65 3 -15 22 -43 41 -62 19 -20 42 -54 52 -78 9 -24 30 -59 47 -78 18 -19
38 -51 46 -70 8 -19 25 -43 37 -53 38 -30 30 -59 -23 -81 -26 -10 -61 -34 -79
-51 -18 -18 -52 -42 -76 -52 -24 -11 -59 -33 -78 -49 -19 -16 -48 -33 -65 -39
-40 -13 -44 -40 -13 -73 14 -15 33 -45 42 -68 9 -23 29 -50 44 -62 16 -11 31
-34 34 -50 3 -16 24 -51 47 -76 22 -26 40 -53 40 -59 0 -7 16 -37 37 -67 24
-36 32 -55 24 -58 -7 -2 -42 -26 -78 -53 -35 -27 -79 -56 -98 -63 -18 -8 -50
-30 -71 -49 -22 -19 -56 -42 -78 -51 -21 -9 -55 -31 -76 -50 -20 -18 -43 -35
-51 -38 -19 -6 24 -99 68 -149 18 -20 39 -52 47 -70 8 -19 28 -47 45 -63 17
-16 36 -45 42 -65 6 -20 24 -49 40 -66 31 -34 49 -74 49 -112 0 -33 -76 -133
-101 -133 -30 0 -30 15 -4 88 26 71 30 98 19 126 -14 37 -31 14 -38 -51 -11
-111 -26 -163 -57 -198 -28 -31 -84 -63 -95 -53 -2 3 14 81 37 174 30 118 48
173 61 182 22 16 23 50 2 80 -24 34 -34 26 -34 -28 0 -47 -87 -397 -108 -437
-16 -30 -55 -61 -84 -68 -16 -4 -28 -4 -28 -1 0 4 18 73 39 154 21 81 54 211
72 290 27 118 36 142 51 142 13 0 18 8 18 31 0 38 -16 69 -35 69 -11 0 -15
-13 -15 -53 0 -32 -18 -116 -44 -212 -25 -88 -59 -216 -76 -285 -17 -69 -36
-137 -42 -153 -20 -51 -108 -112 -108 -74 0 18 114 477 162 652 22 83 47 155
54 161 17 13 18 57 4 85 -18 32 -30 21 -30 -25 0 -25 -23 -127 -51 -228 -28
-101 -79 -290 -114 -421 -35 -131 -73 -253 -84 -271 -21 -33 -85 -76 -96 -64
-4 3 48 214 114 469 66 255 119 465 116 467 -10 10 -31 -64 -144 -494 -115
-442 -118 -453 -157 -498 -30 -35 -45 -45 -64 -43 -31 3 -33 -14 40 257 81
297 172 662 166 667 -6 6 -16 -27 -125 -437 -149 -556 -134 -509 -181 -553
-50 -47 -76 -46 -73 3 3 32 1 31 -20 -19 -17 -42 -33 -62 -72 -88 -46 -32 -50
-33 -62 -17 -7 10 -13 13 -13 6 0 -20 -61 -82 -100 -102 -40 -20 -51 -18 -44
8 2 10 -2 3 -10 -14 -17 -36 -90 -104 -111 -104 -17 0 -18 15 -6 77 11 59 76
132 116 133 23 0 42 12 75 45 24 25 52 45 63 45 56 0 108 54 136 140 l21 65
-3 -52 c-4 -49 -2 -53 18 -53 30 0 56 31 54 66 -1 16 34 157 79 314 117 413
124 440 119 453 -7 17 -7 18 -113 -368 -53 -192 -99 -354 -103 -358 -15 -16
-39 6 -57 51 -10 26 -17 55 -17 64 1 10 -1 17 -5 17 -27 -4 -44 4 -52 25 -16
42 -45 42 -82 0 -50 -56 -54 -64 -66 -129 -17 -86 -75 -281 -80 -267 -3 11 59
278 75 318 3 9 -2 14 -16 14 -12 0 -21 5 -21 11 0 7 20 82 44 168 55 192 118
442 113 447 -4 5 -79 -261 -136 -483 -33 -128 -44 -159 -73 -192 -27 -32 -40
-64 -72 -185 -21 -80 -42 -146 -47 -146 -13 0 -12 9 26 153 29 108 34 143 29
192 -5 52 1 86 50 265 56 205 83 329 49 225 -9 -27 -39 -135 -68 -240 -46
-171 -53 -190 -71 -187 -18 2 -25 -13 -58 -133 -21 -75 -41 -134 -43 -131 -7
7 28 166 49 223 17 47 18 59 7 108 -11 48 -16 56 -44 65 -29 10 -34 16 -45 70
-11 51 -18 62 -46 79 -27 16 -35 29 -40 62 -4 23 -16 51 -26 61 -11 11 -18 21
-16 22 1 1 20 13 40 25 21 12 47 36 59 52 15 22 28 29 53 29 25 0 42 10 76 45
41 42 45 50 65 153 25 124 87 325 92 301 2 -9 -19 -102 -47 -207 -27 -106 -50
-194 -50 -197 0 -2 7 -2 15 1 21 9 20 -3 -25 -181 -22 -88 -40 -166 -39 -175
1 -21 14 22 59 198 34 131 44 159 75 197 23 28 42 65 51 102 29 117 67 233 76
233 5 0 7 -8 4 -17 -13 -46 -66 -249 -66 -255 0 -5 11 -8 24 -8 28 0 106 82
106 110 0 26 40 153 47 147 2 -3 -3 -42 -12 -87 -15 -75 -15 -84 0 -116 9 -19
27 -41 40 -50 14 -9 31 -37 41 -66 14 -43 15 -56 4 -89 -7 -22 -11 -42 -8 -45
3 -3 11 11 18 31 9 28 16 35 29 29 42 -17 63 -15 101 10 22 14 47 37 56 51 12
19 25 25 53 25 31 0 41 7 78 52 29 36 43 65 48 97 9 59 73 283 85 295 10 10
-21 -138 -51 -239 -11 -38 -22 -78 -25 -87 -4 -14 1 -18 25 -18 22 0 38 10 66
42 19 23 38 54 41 68 3 14 14 61 26 105 31 119 31 126 10 188 -15 45 -16 57
-6 57 8 0 32 37 55 83 23 45 63 120 89 167 73 129 83 176 78 349 -5 131 -3
154 17 226 13 45 26 103 29 130 l5 50 -18 -55 c-11 -30 -25 -86 -32 -123 l-13
-69 -29 6 -30 6 6 -77 c4 -43 10 -132 13 -198 l7 -120 -31 -45 c-26 -39 -83
-142 -186 -334 -17 -32 -30 -42 -66 -52 -26 -8 -57 -25 -70 -39 -17 -18 -34
-25 -62 -25 -40 0 -77 -14 -91 -34 -4 -6 -12 -29 -17 -51 -51 -194 -114 -405
-122 -405 -5 0 -7 8 -4 18 18 63 106 403 106 411 0 12 -52 4 -90 -14 -15 -6
-60 -10 -110 -8 -47 1 -108 2 -136 2 -34 0 -55 5 -64 16 -7 8 -28 15 -49 15
-25 0 -43 8 -60 25 -13 14 -35 28 -50 32 -14 3 -43 21 -64 39 -20 19 -43 34
-50 34 -8 0 -26 13 -40 30 -15 16 -40 36 -56 44 -16 9 -33 25 -36 37 -4 11
-26 41 -50 65 -26 26 -51 65 -63 96 -11 30 -28 57 -39 62 -18 8 -21 24 -29
135 -15 216 -12 273 25 405 31 106 39 124 83 175 28 31 57 70 65 86 9 17 29
49 45 73 16 24 38 78 50 125 22 89 37 126 38 93 0 -11 -7 -48 -16 -84 -9 -35
-14 -66 -11 -68 9 -9 60 22 91 54 21 22 41 32 77 37 53 7 75 25 65 52 -4 10
14 101 41 202 38 148 53 192 75 217 28 32 84 62 94 51 4 -3 -3 -34 -15 -68
-12 -35 -21 -71 -21 -82 0 -34 17 -8 34 55 10 35 27 87 38 116 30 77 13 105
-33 56z m-150 -180 c2 -2 -10 -50 -27 -106 -17 -57 -41 -140 -53 -186 -19 -71
-26 -83 -47 -89 -64 -16 -71 32 -26 200 23 91 34 116 67 153 31 35 44 43 61
38 11 -4 23 -8 25 -10z m-449 -574 c-7 -28 -14 -49 -16 -47 -3 2 1 27 8 55 6
29 13 50 16 47 2 -2 -1 -27 -8 -55z m-126 -937 c-4 -21 -15 -60 -24 -88 -15
-44 -15 -56 -3 -104 l14 -54 -42 -43 c-41 -42 -89 -59 -89 -32 0 7 11 50 26
97 36 124 32 115 49 101 17 -14 22 -4 51 98 19 69 29 82 18 25z m42 -314 c-20
-74 -41 -154 -49 -179 -12 -40 -12 -50 5 -97 l19 -51 -51 -51 c-34 -34 -59
-51 -75 -51 -30 0 -30 2 -5 74 11 32 23 80 26 108 7 48 8 50 35 44 26 -5 28
-3 39 47 23 98 84 310 87 300 2 -5 -12 -70 -31 -144z m-138 -124 c13 -46 12
-54 -12 -135 -14 -47 -30 -107 -36 -135 -14 -63 -70 -125 -112 -125 -15 0 -28
2 -28 5 0 3 22 80 49 172 27 93 57 194 65 225 15 52 18 56 38 49 14 -5 26 -24
36 -56z m1203 -77 c-33 -125 -59 -201 -60 -178 -1 12 33 143 77 295 3 11 7 14
9 8 3 -7 -9 -63 -26 -125z m-785 -149 c-45 -175 -64 -237 -65 -209 -2 38 100
412 106 393 2 -6 -16 -88 -41 -184z m519 95 c-8 -38 -19 -82 -25 -99 -9 -27
-9 -25 -5 15 6 51 36 163 42 157 2 -2 -3 -35 -12 -73z m-665 -631 c0 -29 -78
-281 -79 -258 -2 20 64 265 71 265 5 0 8 -3 8 -7z m-1045 -189 c-8 -38 -19
-82 -25 -99 -17 -50 -3 56 16 121 22 76 28 62 9 -22z m1101 -79 c-26 -97 -45
-146 -45 -115 -1 44 62 255 67 228 2 -9 -8 -60 -22 -113z m453 -156 c-17 -60
-34 -108 -36 -105 -2 2 11 64 29 137 21 85 34 124 36 106 2 -15 -11 -77 -29
-138z"/>
<path d="M7324 8762 c-3 -9 -16 -39 -30 -67 -13 -27 -38 -106 -54 -175 -17
-69 -46 -175 -65 -236 -19 -62 -35 -115 -35 -118 0 -3 10 -6 21 -6 25 0 25 -3
-20 -174 -17 -66 -29 -121 -27 -123 5 -5 41 113 65 216 11 46 27 94 36 107 19
29 69 62 106 70 14 3 42 23 63 44 45 47 91 66 101 43 4 -12 13 -4 35 31 35 54
37 81 11 116 l-19 24 -21 -24 c-11 -14 -20 -30 -21 -36 0 -20 -31 -86 -37 -81
-3 3 3 31 12 61 23 72 16 183 -11 203 -16 12 -21 11 -34 -8 -9 -11 -24 -55
-34 -97 -23 -97 -65 -234 -76 -246 -11 -11 12 91 50 221 39 134 41 253 4 267
-9 3 -17 -2 -20 -12z"/>
<path d="M8190 8760 c-30 -30 -25 -65 18 -113 21 -23 46 -61 56 -84 10 -23 29
-52 43 -65 13 -12 33 -43 44 -68 11 -25 33 -58 49 -75 15 -16 35 -47 44 -67 8
-21 19 -38 23 -38 4 0 21 14 37 31 28 28 71 47 82 37 2 -3 -9 -22 -26 -43 -34
-42 -36 -78 -6 -83 36 -7 65 19 81 74 19 67 20 64 -14 64 -21 0 -32 6 -36 20
-3 11 -10 20 -15 20 -5 0 -13 15 -20 34 -6 18 -26 51 -44 72 -18 21 -43 59
-56 84 -12 25 -38 62 -56 82 -18 21 -36 49 -40 63 -5 20 -20 33 -61 51 -67 29
-77 30 -103 4z"/>
<path d="M8146 8505 c-21 -71 -40 -150 -42 -175 l-4 -45 15 40 c27 68 76 265
73 288 -2 12 -21 -36 -42 -108z"/>
<path d="M8232 8372 c-35 -128 -36 -132 -24 -132 10 0 59 154 69 213 12 78
-13 32 -45 -81z"/>
<path d="M8866 8472 c-3 -5 -8 -28 -12 -51 -4 -25 -14 -46 -25 -52 -11 -5 -25
-34 -35 -67 -27 -99 -35 -122 -43 -122 -4 0 3 39 15 88 24 92 31 172 14 172
-5 0 -25 -14 -44 -30 -25 -23 -40 -48 -55 -99 -12 -38 -21 -76 -21 -85 0 -8
20 -32 45 -52 34 -29 47 -48 57 -86 9 -36 19 -52 37 -61 17 -8 33 -31 47 -65
29 -72 53 -88 107 -72 59 17 107 69 107 114 0 28 -8 44 -38 74 -21 21 -46 59
-56 85 -10 26 -23 50 -31 54 -7 5 -24 26 -39 47 -29 44 -34 97 -11 116 11 9
15 26 13 53 -3 38 -20 59 -32 39z m9 -318 l-15 -39 6 40 c6 44 16 65 21 49 2
-6 -4 -28 -12 -50z m-18 -66 c-3 -8 -6 -5 -6 6 -1 11 2 17 5 13 3 -3 4 -12 1
-19z m93 -115 c-11 -17 -11 -17 -6 0 3 10 7 31 7 45 l2 27 4 -27 c2 -15 -1
-35 -7 -45z"/>
<path d="M7641 8444 c-19 -24 -29 -64 -16 -64 7 0 47 81 42 86 -3 3 -14 -7
-26 -22z"/>
<path d="M7967 8308 c-8 -46 -14 -85 -12 -87 8 -8 38 77 42 122 9 80 -14 54
-30 -35z"/>
<path d="M8336 8291 c-18 -61 -21 -95 -7 -86 12 7 35 108 29 126 -3 8 -13 -10
-22 -40z"/>
<path d="M7461 8246 c-6 -27 -10 -51 -7 -53 7 -7 28 76 23 90 -2 6 -9 -10 -16
-37z"/>
<path d="M8438 8207 c-5 -10 -8 -33 -8 -50 1 -27 2 -29 11 -14 6 9 9 32 7 50
-2 25 -5 28 -10 14z"/>
<path d="M7302 8128 c-28 -94 -54 -209 -49 -214 4 -5 49 144 67 224 18 79 6
73 -18 -10z"/>
<path d="M8561 8164 c0 -11 3 -14 6 -6 3 7 2 16 -1 19 -3 4 -6 -2 -5 -13z"/>
<path d="M8022 8150 c-18 -11 -45 -20 -61 -20 -16 0 -48 -11 -72 -24 -24 -13
-55 -27 -68 -31 -14 -4 -46 -24 -72 -44 -25 -20 -60 -43 -76 -52 -38 -20 -121
-132 -166 -223 -59 -119 -67 -161 -67 -367 0 -180 0 -184 22 -194 16 -7 26
-26 36 -65 15 -62 86 -164 135 -195 18 -11 45 -35 61 -53 15 -18 40 -35 54
-39 14 -3 41 -17 60 -30 19 -12 44 -23 55 -23 11 0 29 -8 39 -17 10 -9 37 -18
59 -19 22 -1 48 -9 58 -18 10 -9 27 -16 39 -16 12 0 42 -7 67 -16 44 -14 91
-11 80 6 -2 4 -25 11 -50 14 -43 7 -143 53 -175 81 -8 7 -25 16 -37 19 -35 11
-161 138 -179 181 -9 22 -24 45 -34 52 -10 7 -21 29 -24 50 -4 21 -16 76 -28
122 -35 138 -11 325 58 464 36 72 175 213 239 241 28 13 64 34 80 48 18 15 48
28 75 31 153 20 215 24 237 16 33 -12 93 -11 93 1 0 18 -50 58 -80 65 -15 3
-36 15 -46 26 -12 13 -30 19 -59 19 -22 0 -45 4 -50 9 -6 5 -46 11 -90 15 -69
5 -84 3 -113 -14z"/>
<path d="M8646 8058 c-15 -53 -26 -102 -23 -110 6 -16 23 25 43 105 26 101 10
105 -20 5z"/>
<path d="M8540 8111 c-10 -19 -15 -79 -6 -70 6 6 25 89 20 89 -2 0 -8 -9 -14
-19z"/>
<path d="M8482 8004 c9 -10 24 -14 33 -10 23 9 9 26 -23 26 -24 0 -25 -1 -10
-16z"/>
<path d="M8748 7965 c-20 -72 -31 -135 -24 -135 11 0 47 139 44 167 -2 23 -6
17 -20 -32z"/>
<path d="M9058 7738 c-128 -478 -229 -871 -226 -880 4 -11 24 58 188 655 68
243 97 364 92 378 -6 15 -21 -26 -54 -153z"/>
<path d="M8831 7816 c-12 -38 -26 -75 -32 -82 -14 -17 -3 -63 22 -94 l20 -25
-6 48 c-4 30 0 75 10 122 22 99 13 118 -14 31z"/>
<path d="M5861 7814 c0 -11 3 -14 6 -6 3 7 2 16 -1 19 -3 4 -6 -2 -5 -13z"/>
<path d="M5841 7762 c-10 -20 -27 -100 -18 -92 7 7 37 110 32 110 -2 0 -9 -8
-14 -18z"/>
<path d="M9137 7579 c-27 -105 -47 -192 -44 -195 12 -12 29 35 66 183 23 89
41 171 41 183 0 55 -19 3 -63 -171z"/>
<path d="M5951 7728 c-15 -48 -41 -160 -40 -178 1 -23 28 57 45 133 17 72 13
101 -5 45z"/>
<path d="M9262 7576 c-24 -75 -27 -96 -12 -96 13 0 42 104 38 137 -3 23 -8 15
-26 -41z"/>
<path d="M2471 7353 c-17 -14 -39 -83 -101 -325 -44 -169 -80 -314 -80 -323 0
-19 44 -48 66 -43 29 5 78 204 75 303 -2 77 -1 82 35 135 26 39 44 83 61 150
12 52 23 101 23 108 0 18 -54 15 -79 -5z"/>
<path d="M2582 7353 c-8 -16 -52 -190 -52 -207 0 -11 66 -6 83 7 14 10 67 174
67 208 0 5 -20 9 -45 9 -32 0 -47 -5 -53 -17z"/>
<path d="M2683 7278 c-12 -46 -25 -93 -29 -105 -5 -18 -1 -23 21 -29 56 -14
76 4 98 86 11 41 21 86 21 100 1 23 -3 25 -44 28 l-45 3 -22 -83z"/>
<path d="M3722 7343 c-13 -3 -27 -14 -32 -26 -14 -32 -350 -1308 -350 -1328 0
-6 19 -9 47 -7 l46 3 178 670 c98 369 178 676 179 683 0 12 -23 14 -68 5z"/>
<path d="M3841 7341 c-23 -6 -35 -46 -203 -676 -98 -368 -178 -673 -178 -678
0 -4 19 -7 43 -5 l42 3 30 152 c25 130 33 153 51 162 12 5 24 22 26 38 3 15
13 59 24 96 17 62 17 69 3 77 -15 9 -14 19 3 112 25 131 96 410 107 421 6 6
15 -2 23 -18 14 -26 16 -22 51 112 20 76 39 155 43 176 6 34 5 37 -17 36 -13
-1 -35 -4 -48 -8z"/>
<path d="M2345 7308 c-32 -30 -40 -49 -92 -238 -70 -256 -70 -256 -41 -300 34
-50 52 -50 65 2 6 24 40 158 77 299 36 140 66 258 66 262 0 18 -44 3 -75 -25z"/>
<path d="M2821 7323 c-5 -10 -17 -55 -27 -101 -20 -92 -17 -100 38 -108 l34
-6 24 103 c22 99 22 103 5 116 -26 18 -63 16 -74 -4z"/>
<path d="M3585 7138 c-37 -112 -95 -303 -130 -424 -65 -223 -185 -691 -185
-718 0 -30 40 -4 49 33 58 221 234 877 286 1059 69 249 70 252 55 252 -5 0
-39 -91 -75 -202z"/>
<path d="M3936 7320 c-3 -8 -15 -53 -26 -100 -12 -47 -33 -125 -47 -175 -23
-80 -25 -97 -16 -150 6 -33 17 -76 25 -94 l14 -35 53 187 c46 160 53 195 48
245 -5 63 -41 148 -51 122z"/>
<path d="M2935 7288 c-2 -7 -14 -51 -25 -97 -20 -81 -21 -111 -1 -111 9 0 81
171 81 194 0 24 -47 35 -55 14z"/>
<path d="M2245 7238 c-52 -41 -99 -190 -88 -278 6 -51 13 -83 18 -79 7 7 106
371 102 375 -2 3 -16 -6 -32 -18z"/>
<path d="M8966 6936 c-55 -192 -84 -312 -79 -317 6 -6 14 -5 20 3 14 19 155
584 151 605 -2 10 -43 -121 -92 -291z"/>
<path d="M3981 7023 c-12 -49 -36 -137 -53 -198 -31 -111 -33 -148 -12 -267 6
-36 6 -37 -30 -43 -20 -4 -39 -11 -42 -16 -2 -5 -14 -43 -26 -86 -11 -43 -23
-86 -25 -95 -5 -16 2 -18 45 -18 40 0 52 4 56 18 3 9 23 87 46 172 23 85 60
218 82 295 31 110 39 151 35 190 -5 53 -34 135 -47 135 -4 0 -17 -39 -29 -87z"/>
<path d="M9120 7039 c-7 -30 -30 -110 -52 -179 -38 -127 -45 -160 -30 -160 15
0 29 42 73 210 28 108 38 165 31 172 -6 6 -14 -8 -22 -43z"/>
<path d="M9195 6885 c-10 -41 -16 -78 -12 -81 18 -18 66 108 53 141 -11 30
-22 14 -41 -60z"/>
<path d="M4056 6833 c-32 -117 -136 -518 -136 -525 0 -3 14 -11 30 -17 17 -5
30 -17 30 -26 0 -23 17 -10 23 17 2 13 31 113 64 224 56 187 60 204 52 260 -7
51 -33 134 -42 134 -2 0 -11 -30 -21 -67z"/>
<path d="M2422 6764 c-33 -121 -33 -126 -15 -140 10 -7 31 -13 47 -11 28 2 30
7 53 87 40 147 40 146 2 169 -19 12 -38 21 -44 21 -5 0 -25 -57 -43 -126z"/>
<path d="M8821 6824 c0 -11 3 -14 6 -6 3 7 2 16 -1 19 -3 4 -6 -2 -5 -13z"/>
<path d="M2534 6714 l-28 -117 23 -18 c13 -11 33 -19 45 -19 19 0 24 13 49
113 15 61 27 115 27 119 0 10 -55 38 -74 38 -10 0 -22 -33 -42 -116z"/>
<path d="M2645 6664 c-27 -114 -28 -117 -9 -131 20 -14 63 -28 68 -22 1 2 16
55 33 118 30 111 30 114 12 132 -11 11 -32 19 -47 19 -28 0 -29 -2 -57 -116z"/>
<path d="M2781 6718 c-4 -13 -18 -71 -31 -129 l-23 -106 20 -29 c11 -16 24
-40 28 -54 l8 -25 9 25 c16 42 78 272 78 290 0 15 -47 50 -69 50 -6 0 -15 -10
-20 -22z"/>
<path d="M8260 6700 c0 -5 9 -10 20 -10 11 0 20 5 20 10 0 6 -9 10 -20 10 -11
0 -20 -4 -20 -10z"/>
<path d="M8712 6603 c-12 -48 -25 -98 -28 -110 -5 -20 -2 -23 19 -23 18 0 38
14 66 46 45 51 46 57 28 124 -10 37 -17 46 -38 48 -24 3 -27 -1 -47 -85z"/>
<path d="M2852 6503 c-29 -93 -70 -238 -91 -323 -22 -85 -43 -165 -47 -177 -6
-21 -3 -23 33 -23 26 0 46 6 57 19 9 10 35 88 57 172 22 85 56 208 75 274 18
66 34 131 34 146 0 25 -39 79 -58 79 -5 0 -32 -75 -60 -167z"/>
<path d="M4120 6613 c-7 -32 -35 -137 -62 -233 -47 -163 -50 -181 -45 -261 4
-87 21 -139 38 -122 5 5 28 79 50 164 22 85 51 192 65 239 13 46 24 96 24 111
0 34 -38 159 -49 159 -4 0 -14 -26 -21 -57z"/>
<path d="M2986 6553 c-30 -101 -136 -527 -132 -531 10 -9 67 21 90 49 13 15
31 60 41 101 10 40 29 109 42 152 27 85 26 134 -4 208 -16 41 -29 48 -37 21z"/>
<path d="M5882 6525 c-68 -209 -133 -477 -86 -350 31 82 105 350 102 370 -2
14 -7 9 -16 -20z"/>
<path d="M3711 6478 c-12 -39 -41 -165 -41 -179 0 -11 79 -3 92 10 5 4 17 43
29 86 12 44 24 88 26 98 5 15 -2 17 -45 17 -48 0 -51 -2 -61 -32z"/>
<path d="M5731 6442 c-14 -26 -51 -180 -50 -207 1 -34 25 30 49 129 21 88 21
116 1 78z"/>
<path d="M4142 6226 c-34 -118 -62 -219 -62 -225 0 -6 21 -11 50 -11 l49 0 11
43 c6 23 22 82 35 130 29 101 30 123 11 193 -26 100 -28 98 -94 -130z"/>
<path d="M2181 6195 c-43 -119 -46 -136 -30 -146 34 -22 45 -9 78 92 31 96 32
101 15 120 -9 10 -20 19 -25 19 -4 0 -21 -38 -38 -85z"/>
<path d="M3021 6220 c-7 -23 -10 -44 -8 -47 7 -6 29 65 25 79 -2 6 -10 -8 -17
-32z"/>
<path d="M2271 6203 c-6 -21 -18 -69 -27 -107 l-17 -69 22 -19 c31 -24 60 -23
70 5 11 27 51 172 51 184 0 12 -54 43 -74 43 -9 0 -19 -14 -25 -37z"/>
<path d="M2695 6213 c-27 -14 -53 -31 -57 -37 -6 -10 -28 -98 -44 -184 l-7
-33 49 3 48 3 33 130 c18 72 31 133 30 137 -1 3 -24 -5 -52 -19z"/>
<path d="M4242 6128 c-13 -41 -25 -92 -29 -112 l-6 -36 47 0 c31 0 48 5 52 14
8 20 -10 133 -28 175 l-14 35 -22 -76z"/>
<path d="M2387 6173 c-3 -10 -15 -56 -28 -101 -25 -95 -21 -104 40 -100 l35 3
28 95 c15 52 25 101 23 108 -3 7 -22 12 -49 12 -34 0 -46 -4 -49 -17z"/>
<path d="M2516 6171 c-9 -14 -56 -179 -56 -196 0 -11 12 -15 45 -15 52 0 52 0
85 123 12 42 18 82 15 87 -8 13 -82 13 -89 1z"/>
<path d="M7881 6104 c0 -11 3 -14 6 -6 3 7 2 16 -1 19 -3 4 -6 -2 -5 -13z"/>
<path d="M7611 6043 c-11 -37 -22 -86 -25 -108 l-6 -40 14 30 c18 37 50 174
43 182 -3 2 -15 -26 -26 -64z"/>
<path d="M8231 6043 c-31 -105 -92 -365 -88 -377 4 -11 77 246 103 362 21 94
11 104 -15 15z"/>
<path d="M7082 5916 c-7 -33 -10 -61 -8 -63 6 -7 28 84 24 103 -2 11 -9 -8
-16 -40z"/>
<path d="M8088 5955 c-21 -69 -68 -252 -68 -260 1 -5 8 5 16 24 20 48 66 229
61 244 -2 6 -6 3 -9 -8z"/>
<path d="M7160 5843 c-26 -23 -34 -44 -52 -123 -11 -52 -22 -131 -23 -175 -1
-48 -12 -122 -28 -185 -15 -58 -27 -112 -27 -120 1 -32 21 21 49 127 25 97 31
108 50 106 12 -2 21 3 21 11 0 8 18 78 41 157 36 127 40 147 30 181 -15 50
-25 53 -61 21z"/>
<path d="M7022 5759 c-30 -35 -32 -42 -26 -91 4 -43 -1 -76 -30 -176 -20 -68
-43 -133 -51 -145 -24 -35 -17 -107 10 -107 9 0 16 18 20 48 10 66 32 164 57
249 19 68 23 72 44 67 21 -5 24 -3 24 24 0 17 9 59 20 94 25 80 25 77 -8 76
-20 -1 -38 -12 -60 -39z"/>
<path d="M7246 5749 c-3 -8 -21 -77 -41 -154 -30 -113 -36 -149 -30 -192 3
-29 9 -53 13 -53 4 0 17 -3 30 -6 18 -5 22 -2 22 15 0 43 -22 111 -36 111 -21
0 -17 18 6 25 11 3 29 19 40 35 11 15 43 39 70 53 40 20 47 27 36 36 -11 9
-16 9 -22 0 -4 -7 -14 14 -23 51 -11 43 -23 68 -38 78 -19 12 -24 12 -27 1z"/>
<path d="M6267 5680 c-26 -16 -47 -34 -47 -39 0 -5 -25 -21 -55 -35 -30 -13
-67 -37 -82 -53 -16 -15 -44 -33 -63 -38 -45 -13 -52 -46 -16 -70 15 -10 32
-37 41 -66 11 -33 26 -54 46 -66 28 -17 49 -62 49 -105 0 -27 42 -22 70 7 13
14 34 25 47 25 13 0 42 17 66 39 23 21 59 46 80 54 43 18 47 38 13 65 -14 10
-28 31 -32 47 -4 15 -26 50 -50 77 -34 37 -44 57 -44 83 0 24 5 35 15 35 16 0
35 30 35 54 0 24 -20 20 -73 -14z m-86 -180 c-12 -45 -28 -96 -36 -113 l-14
-32 5 30 c12 62 58 218 62 207 2 -6 -6 -48 -17 -92z m95 -106 c-26 -81 -43
-113 -30 -56 16 76 49 175 52 159 2 -10 -8 -57 -22 -103z"/>
<path d="M7352 5510 c0 -14 2 -19 5 -12 2 6 2 18 0 25 -3 6 -5 1 -5 -13z"/>
<path d="M7314 5396 c-14 -45 -21 -55 -38 -53 -17 2 -21 -4 -21 -28 1 -16 4
-42 8 -56 6 -24 4 -27 -29 -32 -57 -9 -66 -1 -59 52 7 52 -8 39 -20 -19 -4
-19 -18 -48 -31 -63 -32 -38 -30 -48 14 -100 20 -24 42 -52 48 -62 10 -18 12
-18 55 3 24 12 59 24 77 28 35 7 41 24 15 45 -16 14 -43 69 -43 88 0 5 9 11
21 14 19 5 20 10 14 60 -4 32 -2 78 5 111 15 76 6 82 -16 12z"/>
<path d="M7428 5355 c-22 -80 -31 -125 -24 -125 10 0 48 138 44 162 -2 16 -8
4 -20 -37z"/>
<path d="M5035 5233 c-48 -162 -107 -402 -103 -415 2 -6 25 65 51 158 58 210
99 375 94 380 -2 3 -21 -53 -42 -123z"/>
<path d="M7506 5178 c-28 -105 -30 -108 -58 -108 -22 0 -28 4 -28 23 0 12 -6
42 -14 67 -11 37 -17 45 -37 45 -17 0 -25 -6 -27 -22 -5 -33 34 -114 58 -120
13 -4 23 -19 31 -47 14 -53 35 -86 56 -86 14 0 15 9 10 64 -5 51 -1 86 19 163
13 54 23 105 21 113 -1 8 -16 -33 -31 -92z"/>
<path d="M6011 5178 c-16 -60 -32 -150 -27 -155 7 -7 36 91 43 144 7 64 0 69
-16 11z"/>
<path d="M6990 5170 c0 -41 21 -57 34 -24 13 34 7 64 -14 64 -17 0 -20 -7 -20
-40z"/>
<path d="M7595 5056 c-34 -103 -43 -121 -62 -124 -17 -3 -23 -10 -23 -28 0
-29 26 -42 45 -23 15 15 87 266 83 285 -2 7 -21 -43 -43 -110z"/>
<path d="M5221 4974 c0 -11 3 -14 6 -6 3 7 2 16 -1 19 -3 4 -6 -2 -5 -13z"/>
<path d="M4570 4881 c-6 -28 -10 -56 -7 -63 2 -7 10 13 16 45 16 72 8 87 -9
18z"/>
<path d="M4667 4780 c-4 -14 -6 -36 -6 -50 1 -18 4 -14 10 14 10 44 6 75 -4
36z"/>
<path d="M4646 4685 c-3 -9 -6 -22 -5 -28 0 -7 5 -1 10 12 5 13 8 26 5 28 -2
2 -6 -3 -10 -12z"/>
<path d="M4757 4654 c-4 -4 -7 -19 -6 -33 l0 -26 10 24 c10 26 8 47 -4 35z"/>
<path d="M6121 4332 c-5 -10 -26 -81 -45 -158 -19 -76 -49 -184 -66 -239 -28
-92 -31 -116 -36 -295 -4 -107 -4 -193 -1 -190 12 11 248 874 243 887 -8 21
-83 17 -95 -5z"/>
<path d="M6242 4323 c-6 -16 -34 -118 -63 -228 -28 -110 -84 -318 -125 -463
l-74 -264 -6 -156 c-3 -87 -1 -170 3 -186 8 -26 15 -7 57 150 26 98 81 301
122 449 56 202 77 296 84 373 8 88 12 105 33 125 17 15 29 46 41 102 10 44 20
90 23 103 5 20 2 22 -40 22 -39 0 -46 -3 -55 -27z"/>
<path d="M6360 4308 c-6 -24 -20 -73 -30 -110 -11 -36 -20 -68 -20 -71 0 -11
57 -17 80 -9 19 7 28 26 51 108 16 54 26 105 24 112 -3 7 -22 12 -49 12 -45 0
-45 0 -56 -42z"/>
<path d="M4150 4295 c-26 -38 -31 -53 -26 -80 5 -24 -4 -70 -29 -157 -35 -121
-43 -171 -26 -152 8 9 81 257 81 277 0 5 14 32 31 58 53 83 24 134 -31 54z"/>
<path d="M6487 4333 c-2 -5 -15 -57 -28 -117 l-23 -108 29 -24 c42 -33 53 -30
65 19 6 23 20 74 31 113 10 38 19 76 19 83 0 6 -16 19 -35 27 -39 16 -52 17
-58 7z"/>
<path d="M7512 4333 c-13 -3 -27 -14 -32 -26 -5 -12 -39 -134 -76 -272 -36
-137 -97 -363 -135 -501 l-69 -251 -3 -154 c-3 -220 11 -211 79 51 30 113 83
309 119 436 47 167 65 248 65 291 0 33 3 94 6 136 7 76 7 77 35 77 31 0 27 -9
63 136 9 34 16 67 16 73 0 11 -24 12 -68 4z"/>
<path d="M7992 4331 c-12 -7 -61 -175 -62 -209 0 -9 13 -12 43 -10 l42 3 3
113 c3 110 0 120 -26 103z"/>
<path d="M4392 4228 c-34 -110 -64 -239 -57 -246 9 -9 99 322 93 340 -2 6 -18
-36 -36 -94z"/>
<path d="M6001 4311 c-23 -23 -34 -132 -29 -296 l3 -110 58 200 c31 110 57
206 57 213 0 20 -67 15 -89 -7z"/>
<path d="M7190 4323 c0 -5 5 -15 10 -23 8 -12 10 -11 10 8 0 12 -4 22 -10 22
-5 0 -10 -3 -10 -7z"/>
<path d="M7222 4273 c-21 -107 -32 -227 -32 -337 0 -60 2 -107 5 -104 10 10
135 467 135 492 0 4 -22 6 -49 6 l-48 0 -11 -57z"/>
<path d="M7355 4318 c-2 -7 -14 -51 -25 -98 -12 -47 -46 -172 -76 -279 l-55
-193 -5 -192 c-3 -132 -1 -184 6 -168 11 26 260 917 260 932 0 15 -100 12
-105 -2z"/>
<path d="M7605 4318 c-8 -23 -45 -183 -45 -196 0 -9 13 -12 47 -10 l46 3 23
85 c13 47 26 95 30 108 6 21 3 22 -45 22 -32 0 -53 -5 -56 -12z"/>
<path d="M7724 4303 c-3 -16 -14 -61 -25 -101 -10 -40 -19 -74 -19 -77 0 -3
22 -5 50 -5 49 0 49 1 59 38 25 94 41 160 41 166 0 3 -22 6 -50 6 -46 0 -50
-2 -56 -27z"/>
<path d="M7832 4236 c-30 -131 -31 -129 21 -121 23 4 45 10 48 14 6 5 49 178
49 195 0 3 -22 6 -48 6 l-49 0 -21 -94z"/>
<path d="M6571 4170 c-30 -107 -32 -124 -22 -164 6 -25 11 -73 11 -108 0 -70
-7 -86 -75 -158 -38 -40 -45 -57 -70 -156 l-28 -111 24 -43 c13 -24 29 -45 34
-47 9 -3 246 822 245 854 0 16 -49 53 -69 53 -12 0 -24 -30 -50 -120z"/>
<path d="M4508 4194 c-20 -56 -33 -124 -24 -124 9 0 48 137 44 156 -2 10 -10
-4 -20 -32z"/>
<path d="M3752 4168 c-52 -171 -62 -232 -33 -202 19 18 72 264 58 264 -4 0
-15 -28 -25 -62z"/>
<path d="M6705 4208 c-16 -50 -225 -855 -225 -870 0 -22 25 -75 48 -101 16
-17 18 -12 43 85 15 57 68 258 118 447 50 190 91 355 91 367 0 23 -44 84 -61
84 -5 0 -12 -6 -14 -12z"/>
<path d="M6762 3945 c-56 -202 -95 -366 -88 -373 9 -9 58 31 83 67 47 69 66
140 70 256 3 73 0 125 -9 155 l-14 44 -42 -149z"/>
<path d="M4186 3934 c-3 -9 -6 -28 -6 -42 l1 -27 14 25 c16 28 19 60 6 60 -5
0 -12 -7 -15 -16z"/>
<path d="M2797 3833 c-9 -26 -18 -64 -22 -83 -6 -35 -6 -35 9 -10 16 27 41
129 33 136 -3 3 -12 -16 -20 -43z"/>
<path d="M4037 3843 c-10 -10 -8 -61 2 -67 11 -7 21 17 21 50 0 23 -10 31 -23
17z"/>
<path d="M6234 3800 c-50 -154 -224 -790 -224 -818 0 -11 10 -12 43 -7 23 4
45 10 49 14 12 10 188 665 188 697 0 2 -9 4 -20 4 -17 0 -19 8 -22 73 -3 69
-3 71 -14 37z"/>
<path d="M7611 3791 c-21 -6 -28 -18 -42 -76 -10 -39 -21 -87 -25 -108 l-6
-38 48 3 49 3 22 90 c29 120 29 135 1 134 -13 -1 -34 -4 -47 -8z"/>
<path d="M7361 3403 c-57 -214 -106 -396 -109 -405 -4 -15 3 -18 46 -18 51 0
51 0 61 38 11 42 54 202 82 306 11 38 19 86 19 105 0 85 13 144 31 148 11 3
23 20 28 42 25 94 41 159 41 165 0 3 -21 6 -48 6 l-47 0 -104 -387z"/>
<path d="M7701 3753 c-25 -95 -41 -161 -41 -167 0 -3 22 -6 50 -6 49 0 49 1
59 38 25 94 41 160 41 166 0 3 -22 6 -50 6 -49 0 -49 -1 -59 -37z"/>
<path d="M7813 3708 c-12 -46 -25 -93 -29 -106 -6 -22 -5 -23 46 -20 l52 3 24
80 c13 44 26 90 30 103 6 21 3 22 -47 22 l-54 0 -22 -82z"/>
<path d="M6328 3688 c-14 -11 -58 -170 -58 -207 0 -8 16 -11 47 -9 l46 3 28
105 c15 58 28 108 28 113 1 12 -74 8 -91 -5z"/>
<path d="M7927 3651 c-21 -67 -21 -81 -2 -81 21 0 27 19 23 81 l-3 54 -18 -54z"/>
<path d="M2337 3513 c-48 -147 -183 -680 -174 -689 10 -11 114 369 197 721 15
67 3 50 -23 -32z"/>
<path d="M6602 3352 c-23 -81 -42 -155 -42 -165 0 -18 34 -91 53 -115 8 -10
21 23 49 125 52 184 54 208 26 257 -13 22 -27 41 -33 43 -5 1 -29 -64 -53
-145z"/>
<path d="M6213 3275 c-49 -155 -85 -286 -81 -291 3 -2 27 -5 54 -6 l49 -3 8
180 c4 99 6 189 4 200 -1 11 -17 -25 -34 -80z"/>
<path d="M6710 3303 c-7 -32 -25 -103 -41 -158 -16 -55 -29 -115 -29 -132 0
-32 1 -33 45 -33 43 0 45 1 54 38 35 132 52 228 47 254 -6 31 -42 88 -55 88
-4 0 -14 -26 -21 -57z"/>
<path d="M7438 3205 c-30 -90 -58 -194 -58 -219 0 -14 9 -17 47 -14 l46 3 24
100 c28 123 28 115 -1 115 -23 0 -25 5 -28 48 l-3 47 -27 -80z"/>
<path d="M6810 3196 c0 -2 -14 -50 -30 -106 -17 -56 -30 -104 -28 -105 2 -2
24 -6 50 -10 45 -7 48 -6 58 20 17 44 12 122 -10 165 -11 22 -25 40 -30 40 -6
0 -10 -2 -10 -4z"/>
<path d="M7955 3193 c-11 -3 -23 -8 -28 -12 -7 -7 -57 -176 -57 -193 0 -5 22
-8 50 -8 49 0 49 1 59 38 29 109 41 161 41 171 0 11 -28 13 -65 4z"/>
<path d="M7541 3153 c-29 -112 -41 -162 -41 -173 0 -12 78 -5 93 9 6 6 57 181
57 197 0 2 -22 4 -50 4 -49 0 -49 -1 -59 -37z"/>
<path d="M7653 3108 c-12 -46 -25 -93 -29 -106 -6 -22 -5 -23 47 -20 l53 3 17
67 c9 37 20 83 23 103 l7 35 -48 0 -48 0 -22 -82z"/>
<path d="M7796 3178 c-10 -33 -46 -189 -46 -199 0 -11 78 -3 92 10 5 4 17 43
29 86 12 44 24 88 26 98 5 15 -2 17 -46 17 -33 0 -53 -5 -55 -12z"/>
<path d="M8047 3180 c-9 -21 -47 -182 -47 -198 0 -9 11 -12 33 -10 l32 3 3 70
c3 75 -11 161 -21 135z"/>
<path d="M6880 3010 c0 -25 4 -30 25 -30 29 0 31 7 9 38 -21 30 -34 28 -34 -8z"/>
</g>
</svg>
